<svg width="68.000000" height="68.000000" viewBox="0 0 68 68" fill="none" xmlns="http://www.w3.org/2000/svg" xmlns:xlink="http://www.w3.org/1999/xlink">
	<desc>
			Created with Pixso.
	</desc>
	<defs>
		<clipPath id="clip5_105">
			<rect width="68.000000" height="68.000000" fill="white" fill-opacity="0"/>
		</clipPath>
	</defs>
	<rect width="68.000000" height="68.000000" fill="#FFFFFF" fill-opacity="0"/>
	<g clip-path="url(#clip5_105)">
		<rect x="46.000000" y="27.000000" width="12.000000" height="30.000000" fill="#FFD645" fill-opacity="1.000000"/>
		<rect x="11.000000" y="43.000000" width="27.000000" height="14.000000" fill="#FFD645" fill-opacity="1.000000"/>
		<rect x="11.000000" y="27.000000" width="27.000000" height="6.000000" fill="#FFD645" fill-opacity="1.000000"/>
		<path d="M62.0234 0L5.97656 0C2.68109 0 0 2.68109 0 5.97656L0 62.0234C0 65.3189 2.68109 68 5.97656 68L62.0234 68C65.3189 68 68 65.3189 68 62.0234L68 5.97656C68 2.68109 65.3189 0 62.0234 0ZM3.98438 5.97656C3.98438 4.87805 4.87808 3.98438 5.97656 3.98438L15.9375 3.98438L15.9375 15.9375L3.98438 15.9375L3.98438 5.97656ZM64.0156 62.0234C64.0156 63.1219 63.1219 64.0156 62.0234 64.0156L5.97656 64.0156C4.87808 64.0156 3.98438 63.1219 3.98438 62.0234L3.98438 19.9219L64.0156 19.9219L64.0156 62.0234ZM64.0156 15.9375L19.9219 15.9375L19.9219 3.98438L62.0234 3.98438C63.1219 3.98438 64.0156 4.87805 64.0156 5.97656L64.0156 15.9375Z" fill="#000000" fill-opacity="1.000000" fill-rule="nonzero"/>
		<path d="M58.0391 7.96875L54.0547 7.96875C52.9545 7.96875 52.0625 8.86072 52.0625 9.96094C52.0625 11.0612 52.9545 11.9531 54.0547 11.9531L58.0391 11.9531C59.1393 11.9531 60.0312 11.0612 60.0312 9.96094C60.0312 8.86072 59.1393 7.96875 58.0391 7.96875Z" fill="#000000" fill-opacity="1.000000" fill-rule="nonzero"/>
		<path d="M45.9531 7.96875L41.9688 7.96875C40.8685 7.96875 39.9766 8.86072 39.9766 9.96094C39.9766 11.0612 40.8685 11.9531 41.9688 11.9531L45.9531 11.9531C47.0533 11.9531 47.9453 11.0612 47.9453 9.96094C47.9453 8.86072 47.0533 7.96875 45.9531 7.96875Z" fill="#000000" fill-opacity="1.000000" fill-rule="nonzero"/>
		<path d="M34 7.96875L30.0156 7.96875C28.9154 7.96875 28.0234 8.86072 28.0234 9.96094C28.0234 11.0612 28.9154 11.9531 30.0156 11.9531L34 11.9531C35.1002 11.9531 35.9922 11.0612 35.9922 9.96094C35.9922 8.86072 35.1002 7.96875 34 7.96875Z" fill="#000000" fill-opacity="1.000000" fill-rule="nonzero"/>
		<path d="M37.9844 24.0391L9.96094 24.0391C8.86072 24.0391 7.96875 24.931 7.96875 26.0312L7.96875 34C7.96875 35.1002 8.86072 35.9922 9.96094 35.9922L37.9844 35.9922C39.0846 35.9922 39.9766 35.1002 39.9766 34L39.9766 26.0312C39.9766 24.931 39.0846 24.0391 37.9844 24.0391ZM35.9922 32.0078L11.9531 32.0078L11.9531 28.0234L35.9922 28.0234L35.9922 32.0078Z" fill="#000000" fill-opacity="1.000000" fill-rule="nonzero"/>
		<path d="M58.0391 24.0391L45.9531 24.0391C44.8529 24.0391 43.9609 24.931 43.9609 26.0312L43.9609 58.0391C43.9609 59.1393 44.8529 60.0312 45.9531 60.0312L58.0391 60.0312C59.1393 60.0312 60.0312 59.1393 60.0312 58.0391L60.0312 26.0312C60.0312 24.931 59.1393 24.0391 58.0391 24.0391ZM56.0469 56.0469L47.9453 56.0469L47.9453 28.0234L56.0469 28.0234L56.0469 56.0469Z" fill="#000000" fill-opacity="1.000000" fill-rule="nonzero"/>
		<path d="M37.9844 39.9766L9.96094 39.9766C8.86072 39.9766 7.96875 40.8685 7.96875 41.9688L7.96875 58.0391C7.96875 59.1393 8.86072 60.0312 9.96094 60.0312L37.9844 60.0312C39.0846 60.0312 39.9766 59.1393 39.9766 58.0391L39.9766 41.9688C39.9766 40.8685 39.0846 39.9766 37.9844 39.9766ZM35.9922 56.0469L11.9531 56.0469L11.9531 43.9609L35.9922 43.9609L35.9922 56.0469Z" fill="#000000" fill-opacity="1.000000" fill-rule="nonzero"/>
	</g>
</svg>
