<svg width="68.000000" height="68.000000" viewBox="0 0 68 68" fill="none" xmlns="http://www.w3.org/2000/svg" xmlns:xlink="http://www.w3.org/1999/xlink">
	<desc>
			Created with Pixso.
	</desc>
	<defs>
		<clipPath id="clip5_30">
			<rect width="68.000000" height="68.000000" fill="white" fill-opacity="0"/>
		</clipPath>
	</defs>
	<rect width="68.000000" height="68.000000" fill="#FFFFFF" fill-opacity="0"/>
	<g clip-path="url(#clip5_30)">
		<path d="M30.5 24L21.4067 36L39.5933 36L30.5 24Z" fill="#FFD645" fill-opacity="1.000000" fill-rule="evenodd"/>
		<path d="M42 17L29.0096 36.5L54.9904 36.5L42 17Z" fill="#FFD645" fill-opacity="1.000000" fill-rule="evenodd"/>
		<path d="M66.0078 47.9453L1.99219 47.9453C0.891968 47.9453 0 48.8373 0 49.9375L0 66.0078C0 67.108 0.891968 68 1.99219 68L66.0078 68C67.108 68 68 67.108 68 66.0078L68 49.9375C68 48.8373 67.108 47.9453 66.0078 47.9453ZM64.0156 64.0156L59.8984 64.0156L59.8984 57.9062C59.8984 56.806 59.0065 55.9141 57.9062 55.9141C56.806 55.9141 55.9141 56.806 55.9141 57.9062L55.9141 64.0156L51.9297 64.0156L51.9297 61.8906C51.9297 60.7904 51.0377 59.8984 49.9375 59.8984C48.8373 59.8984 47.9453 60.7904 47.9453 61.8906L47.9453 64.0156L43.9609 64.0156L43.9609 57.9062C43.9609 56.806 43.069 55.9141 41.9688 55.9141C40.8685 55.9141 39.9766 56.806 39.9766 57.9062L39.9766 64.0156L35.9922 64.0156L35.9922 61.8906C35.9922 60.7904 35.1002 59.8984 34 59.8984C32.8998 59.8984 32.0078 60.7904 32.0078 61.8906L32.0078 64.0156L28.0234 64.0156L28.0234 57.9062C28.0234 56.806 27.1315 55.9141 26.0312 55.9141C24.931 55.9141 24.0391 56.806 24.0391 57.9062L24.0391 64.0156L20.0547 64.0156L20.0547 61.8906C20.0547 60.7904 19.1627 59.8984 18.0625 59.8984C16.9623 59.8984 16.0703 60.7904 16.0703 61.8906L16.0703 64.0156L12.0859 64.0156L12.0859 57.9062C12.0859 56.806 11.194 55.9141 10.0938 55.9141C8.99353 55.9141 8.10156 56.806 8.10156 57.9062L8.10156 64.0156L3.98438 64.0156L3.98438 51.9297L64.0156 51.9297L64.0156 64.0156Z" fill="#000000" fill-opacity="1.000000" fill-rule="nonzero"/>
		<path d="M66.0078 12.0859C67.108 12.0859 68 11.194 68 10.0938L68 1.99219C68 0.891968 67.108 0 66.0078 0L57.9062 0C56.806 0 55.9141 0.891968 55.9141 1.99219L55.9141 3.98438L12.0859 3.98438L12.0859 1.99219C12.0859 0.891968 11.194 0 10.0938 0L1.99219 0C0.891968 0 0 0.891968 0 1.99219L0 10.0938C0 11.194 0.891968 12.0859 1.99219 12.0859L3.98438 12.0859L3.98438 32.0078L1.99219 32.0078C0.891968 32.0078 0 32.8998 0 34L0 41.9688C0 43.069 0.891968 43.9609 1.99219 43.9609L10.0938 43.9609C11.194 43.9609 12.0859 43.069 12.0859 41.9688L12.0859 39.9766C13.6386 39.9766 54.4444 39.9766 55.9141 39.9766L55.9141 41.9688C55.9141 43.069 56.806 43.9609 57.9062 43.9609L66.0078 43.9609C67.108 43.9609 68 43.069 68 41.9688L68 34C68 32.8998 67.108 32.0078 66.0078 32.0078L64.0156 32.0078L64.0156 12.0859L66.0078 12.0859ZM3.98438 3.98438L8.10156 3.98438L8.10156 8.10156L3.98438 8.10156L3.98438 3.98438ZM8.10156 39.9766L3.98438 39.9766L3.98438 35.9922L8.10156 35.9922L8.10156 39.9766ZM22.0469 35.9922L30.0156 25.3672L37.9844 35.9922L22.0469 35.9922ZM42.9648 35.9922L35.9707 26.6667L41.9688 17.6696L54.1838 35.9922L42.9648 35.9922ZM56.6269 32.4739L43.6264 12.973C42.8403 11.794 41.1003 11.7892 40.3111 12.973L33.4355 23.2864L31.6094 20.8516C30.8124 19.7889 29.2173 19.7911 28.4219 20.8516L17.0664 35.9922L12.0859 35.9922L12.0859 34C12.0859 32.8998 11.194 32.0078 10.0938 32.0078L7.96875 32.0078L7.96875 12.0859L10.0938 12.0859C11.194 12.0859 12.0859 11.194 12.0859 10.0938L12.0859 7.96875L55.9141 7.96875L55.9141 10.0938C55.9141 11.194 56.806 12.0859 57.9062 12.0859L60.0312 12.0859L60.0312 32.0078L57.9062 32.0078C57.4189 32.0078 56.9731 32.1832 56.6269 32.4739ZM64.0156 39.9766L59.8984 39.9766L59.8984 35.9922L64.0156 35.9922L64.0156 39.9766ZM59.8984 8.10156L59.8984 3.98438L64.0156 3.98438L64.0156 8.10156L59.8984 8.10156Z" fill="#000000" fill-opacity="1.000000" fill-rule="nonzero"/>
		<path d="M18.0625 12.0859C14.767 12.0859 12.0859 14.767 12.0859 18.0625C12.0859 21.358 14.767 24.0391 18.0625 24.0391C21.358 24.0391 24.0391 21.358 24.0391 18.0625C24.0391 14.767 21.358 12.0859 18.0625 12.0859ZM18.0625 20.0547C16.964 20.0547 16.0703 19.161 16.0703 18.0625C16.0703 16.964 16.964 16.0703 18.0625 16.0703C19.161 16.0703 20.0547 16.964 20.0547 18.0625C20.0547 19.161 19.161 20.0547 18.0625 20.0547Z" fill="#000000" fill-opacity="1.000000" fill-rule="nonzero"/>
	</g>
</svg>
