<svg width="40.111038" height="40.000000" viewBox="0 0 40.111 40" fill="none" xmlns="http://www.w3.org/2000/svg" xmlns:xlink="http://www.w3.org/1999/xlink">
	<desc>
			Created with Pixso.
	</desc>
	<defs>
		<clipPath id="clip202_99">
			<rect width="40.111034" height="40.000000" fill="white" fill-opacity="0"/>
		</clipPath>
	</defs>
	<rect width="40.111034" height="40.000000" fill="#FFFFFF" fill-opacity="0"/>
	<g clip-path="url(#clip202_99)">
		<path d="M34.2354 0L5.87564 0C2.63577 0 0 2.62842 0 5.85938L0 34.1406C0 37.3716 2.63577 40 5.87564 40L34.2354 40C37.4753 40 40.111 37.3716 40.111 34.1406L40.111 5.85938C40.111 2.62842 37.4753 0 34.2354 0ZM37.7608 34.1406C37.7608 36.0791 36.1793 37.6562 34.2354 37.6562L5.87564 37.6562C3.93178 37.6562 2.35025 36.0791 2.35025 34.1406L2.35025 5.85938C2.35025 3.9209 3.93178 2.34375 5.87564 2.34375L34.2354 2.34375C36.1793 2.34375 37.7608 3.9209 37.7608 5.85938L37.7608 34.1406Z" fill="#070707" fill-opacity="1.000000" fill-rule="nonzero"/>
		<path d="M5.87564 0C2.63577 0 0 2.62842 0 5.85938L0 34.1406C0 37.3716 2.63577 40 5.87564 40L34.2354 40C37.4753 40 40.111 37.3716 40.111 34.1406L40.111 5.85938C40.111 2.62842 37.4753 0 34.2354 0L5.87564 0ZM34.2354 37.6562L5.87564 37.6562C3.93178 37.6562 2.35025 36.0791 2.35025 34.1406L2.35025 5.85938C2.35025 3.9209 3.93178 2.34375 5.87564 2.34375L34.2354 2.34375C36.1793 2.34375 37.7608 3.9209 37.7608 5.85938L37.7608 34.1406C37.7608 36.0791 36.1793 37.6562 34.2354 37.6562Z" stroke="#070707" stroke-opacity="1.000000" stroke-width="0.500000"/>
		<path d="M18.8804 16.4844C18.8804 13.8994 16.7719 11.7969 14.1799 11.7969L7.12909 11.7969L7.12909 28.2031L14.1799 28.2031C16.7719 28.2031 18.8804 26.1006 18.8804 23.5156C18.8804 22.1167 18.2619 20.8596 17.2838 20C18.2619 19.1404 18.8804 17.8833 18.8804 16.4844ZM16.5301 23.5156C16.5301 24.8081 15.4759 25.8594 14.1799 25.8594L9.47934 25.8594L9.47934 21.1719L14.1799 21.1719C15.4759 21.1719 16.5301 22.2231 16.5301 23.5156ZM9.47934 18.8281L9.47934 14.1406L14.1799 14.1406C15.4759 14.1406 16.5301 15.1919 16.5301 16.4844C16.5301 17.7769 15.4759 18.8281 14.1799 18.8281L9.47934 18.8281Z" fill="#070707" fill-opacity="1.000000" fill-rule="nonzero"/>
		<path d="M14.1799 11.7969L7.12909 11.7969L7.12909 28.2031L14.1799 28.2031C16.7719 28.2031 18.8804 26.1006 18.8804 23.5156C18.8804 22.1167 18.2619 20.8596 17.2838 20C18.2619 19.1404 18.8804 17.8833 18.8804 16.4844C18.8804 13.8994 16.7719 11.7969 14.1799 11.7969ZM14.1799 25.8594L9.47934 25.8594L9.47934 21.1719L14.1799 21.1719C15.4759 21.1719 16.5301 22.2231 16.5301 23.5156C16.5301 24.8081 15.4759 25.8594 14.1799 25.8594ZM9.47934 14.1406L14.1799 14.1406C15.4759 14.1406 16.5301 15.1919 16.5301 16.4844C16.5301 17.7769 15.4759 18.8281 14.1799 18.8281L9.47934 18.8281L9.47934 14.1406Z" stroke="#070707" stroke-opacity="1.000000" stroke-width="0.500000"/>
		<path d="M27.1063 16.4844C23.8664 16.4844 21.2307 19.1128 21.2307 22.3438C21.2307 25.5747 23.8664 28.2031 27.1063 28.2031C29.1973 28.2031 31.1473 27.0811 32.1951 25.2744L30.1607 24.1006C29.5315 25.1855 28.361 25.8594 27.1063 25.8594C25.574 25.8594 24.2673 24.8799 23.7823 23.5156L32.9819 23.5156L32.9819 22.3438C32.9819 19.1128 30.3462 16.4844 27.1063 16.4844ZM23.7823 21.1719C24.2673 19.8076 25.574 18.8281 27.1063 18.8281C28.6385 18.8281 29.9453 19.8076 30.4303 21.1719L23.7823 21.1719Z" fill="#070707" fill-opacity="1.000000" fill-rule="nonzero"/>
		<path d="M21.2307 22.3438C21.2307 25.5747 23.8664 28.2031 27.1063 28.2031C29.1973 28.2031 31.1473 27.0811 32.1951 25.2744L30.1607 24.1006C29.5315 25.1855 28.361 25.8594 27.1063 25.8594C25.574 25.8594 24.2673 24.8799 23.7823 23.5156L32.9819 23.5156L32.9819 22.3438C32.9819 19.1128 30.3462 16.4844 27.1063 16.4844C23.8664 16.4844 21.2307 19.1128 21.2307 22.3438ZM27.1063 18.8281C28.6385 18.8281 29.9453 19.8076 30.4303 21.1719L23.7823 21.1719C24.2673 19.8076 25.574 18.8281 27.1063 18.8281Z" stroke="#070707" stroke-opacity="1.000000" stroke-width="0.500000"/>
		<path d="M22.4058 11.7969L31.8069 11.7969L31.8069 14.1406L22.4058 14.1406L22.4058 11.7969Z" fill="#070707" fill-opacity="1.000000" fill-rule="nonzero"/>
		<path d="M31.8069 11.7969L31.8069 14.1406L22.4058 14.1406L22.4058 11.7969L31.8069 11.7969Z" stroke="#070707" stroke-opacity="1.000000" stroke-width="0.500000"/>
	</g>
</svg>
