<svg width="39.108246" height="39.998047" viewBox="0 0 39.1082 39.998" fill="none" xmlns="http://www.w3.org/2000/svg" xmlns:xlink="http://www.w3.org/1999/xlink">
	<desc>
			Created with Pixso.
	</desc>
	<defs/>
	<path d="M19.5541 0C8.78055 0 0 8.98022 0 19.999C0 31.0178 8.78055 39.998 19.5541 39.998C30.3277 39.998 39.1082 31.0178 39.1082 19.999C39.1082 8.98022 30.3277 0 19.5541 0ZM19.5541 3.07666C23.4838 3.07666 27.075 4.47095 29.9047 6.80737C28.4663 8.61499 25.8246 11.1245 21.3967 12.7686C18.9901 8.31689 16.9782 5.47095 15.5775 3.58643C16.8466 3.26904 18.1816 3.07666 19.5541 3.07666ZM12.5974 4.66333C13.7725 6.21118 15.8971 9.12451 18.426 13.6821C11.9299 15.4224 6.06366 15.5376 3.61938 15.4607C4.92615 10.6533 8.23529 6.72095 12.5974 4.66333ZM32.0669 8.94189C34.5676 11.9128 36.0999 15.7686 36.0999 19.999C36.0999 20.6335 36.0623 21.249 35.9965 21.8643C35.4513 21.7874 35.047 21.7202 34.3513 21.6624C32.0199 21.4797 28.9363 21.4797 25.599 21.9893C24.7247 19.6721 23.7658 17.5281 22.7787 15.5186C27.4228 13.7012 30.3653 11.0188 32.0669 8.94189ZM19.8549 16.4705C20.8045 18.374 21.7258 20.4124 22.5813 22.6047C18.6234 23.8066 15.0228 26.5469 12.2589 29.0947C10.783 30.4409 9.57025 31.7292 8.66776 32.7388C5.19876 29.6331 2.99893 25.095 2.99893 20.0085C2.99893 19.499 3.03653 19.0183 3.07413 18.5278C5.21756 18.6145 12.0709 18.6819 19.8549 16.4705ZM29.8106 24.6431C32.1233 24.5564 33.9471 24.72 35.3948 24.8833C34.3043 28.6428 31.9635 31.8445 28.8705 33.9983C28.3723 30.835 27.6014 27.7966 26.6707 24.9314C27.7518 24.7874 28.8141 24.6912 29.8106 24.6431ZM23.6624 25.4893C24.7341 28.6523 25.5802 32.0273 26.0596 35.5657C24.0572 36.4309 21.8668 36.9214 19.5447 36.9214C16.4518 36.9214 13.5845 36.0464 11.112 34.5559C11.9487 33.6426 12.9828 32.5369 14.2614 31.3735C16.9218 28.9314 20.3908 26.4409 23.6624 25.4893Z" fill="#070707" fill-opacity="1.000000" fill-rule="nonzero"/>
	<path d="M19.5541 0C8.78055 0 0 8.98022 0 19.999C0 31.0178 8.78055 39.998 19.5541 39.998C30.3277 39.998 39.1082 31.0178 39.1082 19.999C39.1082 8.98022 30.3277 0 19.5541 0ZM2.43466 27.4592Q1 24.0291 1 19.999Q1 15.969 2.43466 12.5388Q3.79675 9.28223 6.452 6.56665Q9.3208 3.63257 12.8055 2.24487Q15.9319 1 19.5541 1Q23.1763 1 26.3028 2.24487Q29.7874 3.63257 32.6563 6.56665Q35.3116 9.28223 36.6736 12.5388Q38.1083 15.969 38.1082 19.999Q38.1082 24.0291 36.6736 27.4592Q35.3115 30.7158 32.6563 33.4314Q29.7874 36.3655 26.3028 37.7532Q23.1763 38.998 19.5541 38.998Q15.9319 38.998 12.8055 37.7532Q9.3208 36.3655 6.452 33.4314Q3.79675 30.7158 2.43466 27.4592ZM29.7382 8.53101Q30.2336 8 30.6872 7.42993L31.2986 6.66162L30.5414 6.03613Q28.0981 4.0188 25.2922 3.0293Q22.5912 2.07666 19.5541 2.07666Q17.4927 2.07666 15.335 2.61621L13.8806 2.97974L14.7749 4.18286Q17.8682 8.34448 20.5171 13.2441L20.9303 14.0085L21.7448 13.7061Q26.5875 11.908 29.7382 8.53101ZM29.1147 6.19409C26.4195 4.229 23.1266 3.07666 19.5541 3.07666C18.5622 3.07666 17.5899 3.17725 16.6479 3.35278C16.2865 3.41992 15.9294 3.49829 15.5775 3.58643C15.7791 3.85767 15.9933 4.14868 16.2195 4.46167C17.5654 6.32324 19.3364 8.95752 21.3967 12.7686C25.2296 11.3455 27.724 9.27393 29.2581 7.57031C29.3539 7.46387 29.446 7.35889 29.5345 7.25562C29.6658 7.10229 29.7891 6.95264 29.9047 6.80737C29.75 6.67969 29.593 6.55469 29.4338 6.43262C29.3284 6.35181 29.222 6.27246 29.1147 6.19409ZM3.58795 16.4602Q11.044 16.6948 18.6848 14.6479L19.9218 14.3167L19.3004 13.1968Q16.5006 8.15112 13.3939 4.05859L12.9038 3.41309L12.1707 3.75879Q8.67075 5.40967 6.34604 8.08276Q3.78949 11.0225 2.65442 15.1985L2.32227 16.4204L3.58795 16.4602ZM17.9197 12.7817C15.6147 8.73755 13.6932 6.10669 12.5974 4.66333C8.53922 6.57739 5.39236 10.1145 3.92136 14.469C3.81122 14.7952 3.71045 15.1257 3.61938 15.4607C3.91534 15.4702 4.26147 15.4766 4.6528 15.4778C7.32648 15.4854 12.1106 15.2429 17.4245 13.939C17.7564 13.8574 18.0904 13.772 18.426 13.6821C18.2554 13.3745 18.0865 13.0745 17.9197 12.7817ZM36.9908 21.9707Q37.0999 20.9507 37.0999 19.999Q37.0999 16.6782 36.0294 13.7488Q34.9623 10.8291 32.832 8.29785L32.0565 7.37671L31.2934 8.30811Q30.8847 8.80688 30.4453 9.27661Q27.2469 12.6963 22.4143 14.5872L21.4017 14.9834L21.8811 15.9595Q23.4936 19.2419 24.6634 22.3423L24.9493 23.1001L25.7499 22.9778Q28.9368 22.4912 32.113 22.5535Q33.1915 22.5745 34.2687 22.6589Q34.8143 22.7043 35.5822 22.8152Q35.7616 22.8411 35.8568 22.8545L36.8809 22.999L36.9908 21.9707ZM35.0054 21.728C34.8114 21.7048 34.6 21.6831 34.3513 21.6624C32.0199 21.4797 28.9363 21.4797 25.599 21.9893C24.8543 20.0156 24.0482 18.1675 23.2156 16.4211C23.0707 16.1172 22.925 15.8164 22.7787 15.5186C23.0952 15.3945 23.4037 15.2668 23.7046 15.1353C27.2915 13.5684 29.7756 11.4963 31.4042 9.7085C31.6432 9.44604 31.8639 9.1897 32.0669 8.94189C32.2861 9.20239 32.4978 9.46948 32.7018 9.74316C34.8244 12.5916 36.0999 16.1392 36.0999 19.999C36.0999 20.2913 36.0919 20.5796 36.0769 20.8657C36.0593 21.2007 36.032 21.5325 35.9965 21.8643C35.6461 21.8149 35.354 21.7695 35.0054 21.728ZM12.9367 29.8301Q18.1964 24.9812 22.8718 23.5615L23.9056 23.2476L23.5128 22.2412Q22.298 19.1282 20.7498 16.0239L20.3796 15.2817L19.5817 15.5083Q11.5365 17.7939 3.57053 17.5452Q3.34247 17.5381 3.11447 17.5288L2.15082 17.4897L2.07706 18.4514L2.07501 18.4783Q1.99893 19.47 1.99893 20.0085Q1.99893 24.1296 3.5517 27.5447Q5.05173 30.8438 8.00073 33.4839L8.74634 34.1514L9.41327 33.4053Q11.1644 31.4463 12.9367 29.8301ZM22.2099 21.6726C22.335 21.9802 22.4588 22.2908 22.5813 22.6047C22.2626 22.7014 21.9462 22.8081 21.6324 22.9241C18.049 24.2466 14.8003 26.752 12.2589 29.0947C10.8146 30.4121 9.62228 31.6741 8.72614 32.6736L8.66776 32.7388C8.41931 32.5164 8.1774 32.2866 7.94232 32.0498C4.89496 28.9802 2.99893 24.7307 2.99893 20.0085C2.99893 19.499 3.03653 19.0183 3.07413 18.5278C5.21756 18.6145 12.0709 18.6819 19.8549 16.4705C20.6685 18.1016 21.4614 19.8315 22.2099 21.6726ZM33.6476 30.7478Q35.45 28.283 36.3553 25.1621L36.6857 24.0227L35.507 23.8896Q32.4434 23.5439 29.7625 23.6443Q28.1888 23.7202 26.5385 23.9402L25.3488 24.0989L25.7196 25.2405Q27.1934 29.7776 27.8827 34.1538L28.1312 35.7317L29.442 34.8191Q31.945 33.0759 33.6476 30.7478ZM22.5997 37.6519Q24.5694 37.2988 26.4563 36.4836L27.1524 36.1826L27.0506 35.4314Q26.36 30.3352 24.6095 25.1682L24.3023 24.2615L23.383 24.5291Q18.7799 25.8682 13.5883 30.6338Q12.1483 31.9441 10.3746 33.8806L9.54922 34.7817L10.5958 35.4124Q12.8964 36.7991 15.3878 37.4194Q17.4038 37.9214 19.5447 37.9214Q21.0963 37.9214 22.5997 37.6519ZM34.3832 24.7781C33.1207 24.6602 31.6143 24.5754 29.8106 24.6431C29.1271 24.676 28.4126 24.7317 27.6823 24.8098C27.3479 24.8457 27.0103 24.8862 26.6707 24.9314C26.7749 25.2522 26.877 25.575 26.977 25.8999C27.6667 28.1409 28.2536 30.4817 28.6859 32.9004C28.751 33.2646 28.8126 33.6306 28.8705 33.9983C29.1793 33.7834 29.4806 33.5579 29.7738 33.3225C32.162 31.4055 34.0202 28.8286 35.0811 25.8547C35.1949 25.5354 35.2997 25.2117 35.3948 24.8833C35.0762 24.8474 34.7394 24.8115 34.3832 24.7781ZM11.8067 33.8057C12.5039 33.0627 13.3158 32.2339 14.2614 31.3735C16.9218 28.9314 20.3908 26.4409 23.6624 25.4893C24.7341 28.6523 25.5802 32.0273 26.0596 35.5657C24.0572 36.4309 21.8668 36.9214 19.5447 36.9214C16.8183 36.9214 14.2673 36.2415 12.0074 35.0596C11.7036 34.9006 11.405 34.7327 11.112 34.5559C11.3299 34.3181 11.5612 34.0671 11.8067 33.8057Z" fill="#070707" fill-opacity="1.000000" fill-rule="evenodd"/>
</svg>
