<svg width="39.108261" height="39.998047" viewBox="0 0 39.1083 39.998" fill="none" xmlns="http://www.w3.org/2000/svg" xmlns:xlink="http://www.w3.org/1999/xlink">
	<desc>
			Created with Pixso.
	</desc>
	<defs/>
	<path d="M11.3564 0.00952148C5.10476 0.00952148 0 5.22925 0 11.6216L0 28.4053C0 34.7881 5.10476 39.998 11.3564 39.998L27.7706 39.998C34.0129 39.998 39.1083 34.7783 39.1083 28.386L39.1083 11.6121C39.1083 5.21973 34.0129 0 27.7612 0L11.3564 0L11.3564 0.00952148ZM11.3564 3.08569L27.7612 3.08569C32.3865 3.08569 36.0999 6.88257 36.0999 11.6216L36.0999 28.3955C36.0999 33.1345 32.3865 36.9316 27.7706 36.9316L11.3564 36.9316C6.72173 36.9316 3.00833 33.1348 3.00833 28.4148L3.00833 11.6313C3.01773 6.88257 6.73113 3.08569 11.3564 3.08569ZM31.5968 6.16162C30.7601 6.16162 30.0927 6.84424 30.0927 7.69971C30.0927 8.55518 30.7601 9.23779 31.5968 9.23779C32.4335 9.23779 33.101 8.55518 33.101 7.69971C33.101 6.84424 32.4335 6.16162 31.5968 6.16162ZM19.5635 9.23779C13.7725 9.23779 9.03439 14.0825 9.03439 20.0039C9.03439 25.9253 13.7725 30.77 19.5635 30.77C25.3546 30.77 30.0927 25.9253 30.0927 20.0039C30.0927 14.0825 25.3546 9.23779 19.5635 9.23779ZM19.5635 12.3137C23.7376 12.3137 27.0844 15.7358 27.0844 20.0039C27.0844 24.2717 23.7376 27.6938 19.5635 27.6938C15.3895 27.6938 12.0427 24.2717 12.0427 20.0039C12.0427 15.7358 15.3895 12.3137 19.5635 12.3137Z" fill="#070707" fill-opacity="1.000000" fill-rule="nonzero"/>
	<path d="M11.3564 0.00952148C5.10476 0.00952148 0 5.22925 0 11.6216L0 28.4053C0 34.7881 5.10476 39.998 11.3564 39.998L27.7706 39.998C34.0129 39.998 39.1083 34.7783 39.1083 28.386L39.1083 11.6121C39.1083 5.21973 34.0129 0 27.7612 0L11.3564 0L11.3564 0.00952148ZM12.3564 1L12.3564 1.00952L11.3564 1.00952Q9.35304 1.00952 7.62029 1.69434Q5.66161 2.46851 4.04877 4.11768Q2.55639 5.64355 1.79453 7.47363Q1 9.38232 1 11.6216L1 28.4053Q1 30.635 1.79036 32.5359Q2.55215 34.3684 4.04817 35.8953Q5.65584 37.5364 7.60734 38.3096Q9.3455 38.998 11.3564 38.998L27.7706 38.998Q29.7652 38.998 31.4909 38.3169Q33.4513 37.5432 35.0648 35.8906Q36.5491 34.3704 37.3095 32.5479Q38.1083 30.6335 38.1083 28.386L38.1083 11.6121Q38.1083 9.36353 37.3087 7.44873Q36.5481 5.6272 35.0638 4.10767Q33.4551 2.46094 31.5008 1.68677Q29.767 1 27.7612 1L12.3564 1ZM31.3245 2.76831Q29.6849 2.08569 27.7612 2.08569L11.3564 2.08569Q9.43549 2.08569 7.79758 2.7666Q6.1181 3.4646 4.73621 4.87891Q3.47047 6.17407 2.79202 7.72607Q2.01253 9.50928 2.00833 11.6313L2.00833 28.4148Q2.00833 30.4954 2.76365 32.2512Q3.44211 33.8281 4.72998 35.1428Q6.10601 36.5476 7.77724 37.2449Q9.4236 37.9316 11.3564 37.9316L27.7706 37.9316Q29.6831 37.9316 31.3149 37.2549Q32.9975 36.5569 34.3817 35.1394Q35.6565 33.8337 36.3335 32.2695Q37.0999 30.4985 37.0999 28.3955L37.0999 11.6216Q37.0999 9.51758 36.3326 7.74609Q35.6553 6.18237 34.3803 4.87769Q33.0009 3.46606 31.3245 2.76831ZM11.3564 3.08569L27.7612 3.08569C32.3865 3.08569 36.0999 6.88257 36.0999 11.6216L36.0999 28.3955C36.0999 33.1345 32.3865 36.9316 27.7706 36.9316L11.3564 36.9316C6.72173 36.9316 3.00833 33.1348 3.00833 28.4148L3.00833 11.6313C3.01773 6.88257 6.73113 3.08569 11.3564 3.08569ZM31.5968 6.16162C30.7601 6.16162 30.0927 6.84424 30.0927 7.69971C30.0927 8.55518 30.7601 9.23779 31.5968 9.23779C32.4335 9.23779 33.101 8.55518 33.101 7.69971C33.101 6.84424 32.4335 6.16162 31.5968 6.16162ZM31.2356 8.12012Q31.0927 7.98608 31.0927 7.69971Q31.0927 7.41333 31.2356 7.2793Q31.3611 7.16162 31.5968 7.16162Q31.8326 7.16162 31.9581 7.2793Q32.101 7.41333 32.101 7.69971Q32.101 7.98608 31.9581 8.12012Q31.8326 8.23779 31.5968 8.23779Q31.3611 8.23779 31.2356 8.12012ZM19.5635 9.23779C13.7725 9.23779 9.03439 14.0825 9.03439 20.0039C9.03439 25.9253 13.7725 30.77 19.5635 30.77C25.3546 30.77 30.0927 25.9253 30.0927 20.0039C30.0927 14.0825 25.3546 9.23779 19.5635 9.23779ZM10.7579 23.7991Q10.0344 22.0513 10.0344 20.0039Q10.0344 17.9565 10.7579 16.2087Q11.4597 14.5132 12.8423 13.0994Q14.3358 11.5723 16.1495 10.8601Q17.7343 10.2378 19.5635 10.2378Q21.3928 10.2378 22.9776 10.8601Q24.7912 11.5723 26.2848 13.0994Q27.6674 14.5132 28.3692 16.2085Q29.0927 17.9565 29.0927 20.0039Q29.0927 22.0513 28.3692 23.7991Q27.6674 25.4946 26.2848 26.9082Q24.7912 28.4353 22.9776 29.1477Q21.3927 29.77 19.5635 29.77Q17.7343 29.77 16.1494 29.1477Q14.3358 28.4353 12.8423 26.9082Q11.4597 25.4946 10.7579 23.7991ZM27.3873 23.5286Q28.0843 21.917 28.0844 20.0039Q28.0843 18.0908 27.3873 16.4792Q26.7695 15.0508 25.6041 13.8591Q24.349 12.5757 22.824 11.9395Q21.3243 11.3137 19.5635 11.3137Q17.8028 11.3137 16.3031 11.9395Q14.778 12.5757 13.5229 13.8591Q12.3575 15.0508 11.7397 16.4792Q11.0427 18.0908 11.0427 20.0039Q11.0427 21.917 11.7397 23.5286Q12.3575 24.957 13.5229 26.1487Q14.778 27.4319 16.3031 28.0681Q17.8028 28.6938 19.5635 28.6938Q21.3243 28.6938 22.824 28.0681Q24.349 27.4319 25.6041 26.1487Q26.7695 24.957 27.3873 23.5286ZM19.5635 12.3137C23.7376 12.3137 27.0844 15.7358 27.0844 20.0039C27.0844 24.2717 23.7376 27.6938 19.5635 27.6938C15.3895 27.6938 12.0427 24.2717 12.0427 20.0039C12.0427 15.7358 15.3895 12.3137 19.5635 12.3137Z" fill="#070707" fill-opacity="1.000000" fill-rule="evenodd"/>
</svg>
