<svg width="40.666729" height="40.559082" viewBox="0 0 40.6667 40.5591" fill="none" xmlns="http://www.w3.org/2000/svg" xmlns:xlink="http://www.w3.org/1999/xlink">
	<desc>
			Created with Pixso.
	</desc>
	<defs/>
	<path d="M34.5329 0.25L6.1338 0.25C2.88943 0.25 0.25 2.88232 0.25 6.11792L0.25 34.4412C0.25 37.6768 2.88943 40.3091 6.1338 40.3091L34.5329 40.3091C37.7773 40.3091 40.4167 37.6768 40.4167 34.4412L40.4167 6.11792C40.4167 2.88232 37.7773 0.25 34.5329 0.25ZM38.0632 34.4412C38.0632 36.3823 36.4795 37.9619 34.5329 37.9619L6.1338 37.9619C4.18724 37.9619 2.60352 36.3823 2.60352 34.4412L2.60352 6.11792C2.60352 4.17676 4.18724 2.59717 6.1338 2.59717L34.5329 2.59717C36.4795 2.59717 38.0632 4.17676 38.0632 6.11792L38.0632 34.4412Z" fill="#070707" fill-opacity="1.000000" fill-rule="nonzero"/>
	<path d="M6.1338 0.25C2.88943 0.25 0.25 2.88232 0.25 6.11792L0.25 34.4412C0.25 37.6768 2.88943 40.3091 6.1338 40.3091L34.5329 40.3091C37.7773 40.3091 40.4167 37.6768 40.4167 34.4412L40.4167 6.11792C40.4167 2.88232 37.7773 0.25 34.5329 0.25L6.1338 0.25ZM34.5329 37.9619L6.1338 37.9619C4.18724 37.9619 2.60352 36.3823 2.60352 34.4412L2.60352 6.11792C2.60352 4.17676 4.18724 2.59717 6.1338 2.59717L34.5329 2.59717C36.4795 2.59717 38.0632 4.17676 38.0632 6.11792L38.0632 34.4412C38.0632 36.3823 36.4795 37.9619 34.5329 37.9619Z" stroke="#070707" stroke-opacity="1.000000" stroke-width="0.500000"/>
	<path d="M31.3778 29.2861C29.9413 29.2861 28.5149 29.2861 27.0663 29.2861C27.0663 29.2168 27.0663 29.1521 27.0663 29.0874C27.0663 26.7529 27.066 24.4185 27.0667 22.0842C27.0667 21.5874 27.0298 21.0967 26.905 20.6121C26.3896 18.6135 24.1638 18.7305 23.2783 19.6775C22.8332 20.1536 22.5425 20.6914 22.5302 21.3564C22.5274 21.5144 22.5182 21.6731 22.5182 21.8311C22.5173 24.2471 22.5176 26.6636 22.5176 29.0796C22.5176 29.1448 22.5176 29.2102 22.5176 29.2849C21.0752 29.2849 19.6491 29.2849 18.2138 29.2849C18.2138 24.8296 18.2138 20.3789 18.2138 15.9199C19.6467 15.9199 21.0728 15.9199 22.5154 15.9199C22.5154 16.5234 22.5154 17.1179 22.5154 17.7126C22.5268 17.7175 22.5382 17.7229 22.5499 17.7278C22.5806 17.686 22.612 17.645 22.6424 17.603C23.0736 17.0039 23.569 16.4731 24.2274 16.1143C24.9626 15.7129 25.7567 15.5784 26.5832 15.6023C27.4782 15.6284 28.3274 15.8296 29.0927 16.3113C30.0737 16.9287 30.6715 17.832 31.0216 18.9155C31.2945 19.76 31.384 20.6311 31.3849 21.5132C31.387 24.052 31.3858 26.5908 31.3855 29.1294C31.3855 29.1792 31.3809 29.2288 31.3778 29.2861Z" fill="#070707" fill-opacity="1.000000" fill-rule="nonzero"/>
	<path d="M22.5154 17.7126L22.5154 15.9199L18.2138 15.9199L18.2138 29.2849L22.5176 29.2849L22.5176 29.0796C22.5176 28.5959 22.5176 28.1125 22.5176 27.6289C22.5175 25.6963 22.5175 23.7637 22.5182 21.8311C22.5182 21.6731 22.5274 21.5144 22.5302 21.3564C22.5425 20.6914 22.8332 20.1536 23.2783 19.6775C24.1638 18.7305 26.3896 18.6135 26.905 20.6121C27.0298 21.0967 27.0667 21.5874 27.0667 22.0842C27.0662 23.8354 27.0662 25.5867 27.0663 27.3379C27.0663 27.9211 27.0663 28.5044 27.0663 29.0874L27.0663 29.2861L31.3778 29.2861C31.3809 29.2288 31.3855 29.1792 31.3855 29.1294C31.3856 28.5854 31.3857 28.0413 31.3858 27.4973C31.3862 25.5027 31.3866 23.5078 31.3849 21.5132C31.384 20.6311 31.2945 19.76 31.0216 18.9155C30.6715 17.832 30.0737 16.9287 29.0927 16.3113C28.3274 15.8296 27.4782 15.6284 26.5832 15.6023C25.7567 15.5784 24.9626 15.7129 24.2274 16.1143C23.569 16.4731 23.0736 17.0039 22.6424 17.603C22.612 17.645 22.5806 17.686 22.5499 17.7278C22.5382 17.7229 22.5268 17.7175 22.5154 17.7126ZM31.349 29.2556Q31.3496 29.2456 31.3504 29.2334Q31.3549 29.1631 31.3549 29.1294L31.3555 25.3049L31.3543 21.5134Q31.3527 20.0396 30.9925 18.9248Q30.5616 17.5911 29.6606 16.7786Q29.3897 16.5344 29.0764 16.3372Q29.0733 16.3352 29.0701 16.3333Q28.0195 15.6748 26.5823 15.6328Q25.2441 15.5942 24.242 16.1411Q23.7813 16.3923 23.371 16.7905Q23.0189 17.1323 22.6672 17.6208Q22.6488 17.6462 22.6115 17.6963Q22.5868 17.7292 22.5745 17.7458L22.5602 17.7651L22.538 17.7559Q22.5308 17.7529 22.517 17.7468Q22.5079 17.7427 22.5033 17.7407L22.4848 17.7329L22.4848 15.9504L18.2444 15.9504L18.2444 29.2544L22.487 29.2544L22.487 29.0796L22.487 25.4536L22.4876 21.8311Q22.4876 21.7375 22.494 21.5508Q22.4985 21.4207 22.4996 21.3557Q22.504 21.1194 22.5553 20.8938Q22.609 20.6577 22.7142 20.4331Q22.8995 20.0378 23.2559 19.6565Q23.5962 19.2925 24.1364 19.1138Q24.5016 18.9929 24.8686 18.9871Q25.0514 18.9841 25.2346 19.0098Q25.6473 19.0676 25.98 19.262Q26.1309 19.3503 26.2654 19.4666Q26.3151 19.5095 26.3616 19.5557Q26.7682 19.959 26.9346 20.6045Q27.0973 21.2361 27.0973 22.0842L27.097 29.0659L27.097 29.2556L31.349 29.2556Z" fill="#070707" fill-opacity="1.000000" fill-rule="evenodd"/>
	<path d="M15.5842 29.2935C14.1526 29.2935 12.7348 29.2935 11.3035 29.2935C11.3035 24.8357 11.3035 20.3804 11.3035 15.916C12.7268 15.916 14.1486 15.916 15.5842 15.916C15.5842 20.3699 15.5842 24.825 15.5842 29.2935Z" fill="#070707" fill-opacity="1.000000" fill-rule="nonzero"/>
	<path d="M11.3035 29.2935L15.5842 29.2935L15.5842 15.916L11.3035 15.916L11.3035 29.2935ZM11.3341 15.9465L11.3341 29.2629L15.5536 29.2629L15.5536 15.9465L11.3341 15.9465Z" fill="#070707" fill-opacity="1.000000" fill-rule="evenodd"/>
	<path d="M13.6271 9.26367C14.9749 9.26172 15.9286 10.2202 15.9332 11.5813C15.9375 12.9277 14.9693 13.8806 13.5955 13.8813C12.2545 13.8823 11.2984 12.9236 11.2959 11.5759C11.2934 10.2278 12.2634 9.26562 13.6271 9.26367Z" fill="#070707" fill-opacity="1.000000" fill-rule="nonzero"/>
	<path d="M13.6271 9.26367C14.9749 9.26172 15.9286 10.2202 15.9332 11.5813C15.9375 12.9277 14.9693 13.8806 13.5955 13.8813C12.2545 13.8823 11.2984 12.9236 11.2959 11.5759C11.2934 10.2278 12.2634 9.26562 13.6271 9.26367ZM15.732 10.656Q15.9009 11.0835 15.9026 11.5813Q15.9041 12.0737 15.7345 12.4973Q15.6311 12.7554 15.471 12.9714Q15.3754 13.1003 15.2597 13.2141Q15.1725 13.3 15.0765 13.3745Q14.8316 13.5652 14.5298 13.6826Q14.0981 13.8506 13.5955 13.8508Q13.1059 13.8511 12.6834 13.6831L12.6821 13.6826Q12.4151 13.5762 12.1928 13.4102Q12.0726 13.3201 11.9654 13.2126Q11.8656 13.1125 11.7808 13.001Q11.6065 12.7715 11.4961 12.4934Q11.3274 12.0686 11.3265 11.5759Q11.3256 11.0894 11.4914 10.6685Q11.4936 10.6631 11.4958 10.6575Q11.6007 10.395 11.7636 10.1755Q11.8576 10.0488 11.9708 9.93652Q12.0676 9.84058 12.175 9.75854Q12.4111 9.57788 12.6985 9.4646Q13.1285 9.29492 13.6272 9.29419Q14.1201 9.2937 14.5441 9.46216Q14.8122 9.5686 15.0351 9.7356Q15.1552 9.82544 15.2621 9.93311Q15.3551 10.0264 15.435 10.1299Q15.6176 10.3667 15.732 10.656Z" fill="#070707" fill-opacity="1.000000" fill-rule="evenodd"/>
</svg>
